<svg xmlns="http://www.w3.org/2000/svg" xmlns:xlink="http://www.w3.org/1999/xlink" width="205.855" height="47.353" viewBox="0 0 205.855 47.353">
  <defs>
    <clipPath id="clip-path">
      <rect id="長方形_148415" data-name="長方形 148415" width="205.855" height="47.352" transform="translate(0 0)" fill="none"/>
    </clipPath>
  </defs>
  <g id="グループ_163259" data-name="グループ 163259" transform="translate(0 0)">
    <path id="パス_50194" data-name="パス 50194" d="M18.47,33.774h0ZM15.324,18.515l1.4,6.81H11.294Zm-1.853-5.734L0,33.774H6.293l2.436-4.116h8.9l.84,4.116H24.42L19.311,12.781Z" fill="#fff"/>
    <path id="パス_50195" data-name="パス 50195" d="M26.036,33.774l4.2-20.993h5.949l-4.2,20.993Z" fill="#fff"/>
    <path id="パス_50196" data-name="パス 50196" d="M100.136,33.774h5.949l-5.108-20.993H95.136L81.665,33.774h6.294l2.435-4.117h8.9Zm-7.177-8.449,4.03-6.811,1.4,6.811Z" fill="#fff"/>
    <path id="パス_50197" data-name="パス 50197" d="M147.683,17.393l.927-4.612H132.186l-4.2,20.992h16.855l.927-4.612H134.773l.754-3.836h9.354l.862-4.419h-9.311l.69-3.513Z" fill="#fff"/>
    <path id="パス_50198" data-name="パス 50198" d="M182.168,7.069l-9.505,8.664-7.2-8.879H153.589l11.7,15.777L138.35,47.352l10.022-3.082L191.543,3.923Z" fill="#df0011"/>
    <path id="パス_50199" data-name="パス 50199" d="M196.931,3,154.3,42.74l9.053-3.039L173.4,30.5l7.737,10.2h12.781L181.133,23.882,205.855,0Z" fill="#df0011"/>
    <g id="グループ_163265" data-name="グループ 163265">
      <g id="グループ_163264" data-name="グループ 163264" clip-path="url(#clip-path)">
        <path id="パス_50200" data-name="パス 50200" d="M55.262,23.73a7.236,7.236,0,0,0,1.272-4.268,5.931,5.931,0,0,0-2.22-4.914,9.745,9.745,0,0,0-6.229-1.767H39.119l-.927,4.677h9.031a4.1,4.1,0,0,1,2.435.625,2.268,2.268,0,0,1,.862,1.961,2.6,2.6,0,0,1-1.056,2.307,4.545,4.545,0,0,1-3.017.905H42.912l.776-3.513H37.739l-.776,3.513L34.916,33.795h5.948l1.143-5.927h2.974l3.147,5.927h6.207l-3.6-6.616c.323-.108.646-.237.948-.367a8.2,8.2,0,0,0,3.6-3.039Z" fill="#fff"/>
        <path id="パス_50201" data-name="パス 50201" d="M81.838,23.73a7.236,7.236,0,0,0,1.272-4.268,5.931,5.931,0,0,0-2.22-4.914,9.746,9.746,0,0,0-6.23-1.767H65.695l-.927,4.677H73.8a4.106,4.106,0,0,1,2.435.625,2.268,2.268,0,0,1,.862,1.961,2.6,2.6,0,0,1-1.056,2.307,4.55,4.55,0,0,1-3.018.905H69.488l.776-3.513h-5.95l-.775,3.513L61.492,33.795h5.947l1.144-5.927h2.974L74.7,33.795H80.91l-3.6-6.616c.322-.108.646-.237.947-.367a8.206,8.206,0,0,0,3.6-3.039Z" fill="#fff"/>
        <path id="パス_50202" data-name="パス 50202" d="M120.806,28.536a6.543,6.543,0,0,1-2.716.582,5.964,5.964,0,0,1-2.737-.582,4.11,4.11,0,0,1-1.767-1.66,4.858,4.858,0,0,1-.625-2.478,8.351,8.351,0,0,1,.474-2.888,7.018,7.018,0,0,1,1.379-2.328,6.269,6.269,0,0,1,2.134-1.53,6.8,6.8,0,0,1,2.78-.539,5.764,5.764,0,0,1,2.738.625A5.158,5.158,0,0,1,124,19.031l4.267-3.427a7.181,7.181,0,0,0-3-2.371,12.219,12.219,0,0,0-5.151-1.013,14.649,14.649,0,0,0-5.345.927,12,12,0,0,0-4.16,2.63,11.431,11.431,0,0,0-2.694,4.008,12.845,12.845,0,0,0-.97,5.044,8.86,8.86,0,0,0,1.293,4.806,8.766,8.766,0,0,0,3.686,3.255,12.7,12.7,0,0,0,5.6,1.164,14.442,14.442,0,0,0,5.108-.884,9.579,9.579,0,0,0,3.642-2.522l-3.707-3.3a6.292,6.292,0,0,1-1.789,1.185Z" fill="#fff"/>
      </g>
    </g>
  </g>
</svg>
